<svg width="640" height="420" viewBox="0 0 640 420" fill="none" xmlns="http://www.w3.org/2000/svg">
  <rect width="640" height="420" rx="36" fill="#EFE6DA"/>
  <ellipse cx="254" cy="356" rx="204" ry="30" fill="#CCB6A2"/>
  <path d="M94 225C94 154 152 96 223 96H361C438 96 500 158 500 235V256C500 315 452 363 393 363H252C164 363 94 293 94 225Z" fill="#3F322A"/>
  <path d="M337 124C337 85 368 54 407 54H469C520 54 562 96 562 147V202C562 239 532 269 495 269H431C403 269 376 258 356 238L349 231C334 216 325 196 325 175C325 158 329 140 337 124Z" fill="#3F322A"/>
  <path d="M233 150C233 131 248 116 267 116H326C348 116 366 134 366 156V177C366 198 349 215 328 215H285C256 215 233 192 233 163V150Z" fill="#77614F"/>
  <path d="M286 226C286 201 306 181 331 181H383C408 181 428 201 428 226C428 248 410 266 388 266H326C304 266 286 248 286 226Z" fill="#77614F"/>
  <path d="M411 123C411 105 425 91 443 91H482C500 91 514 105 514 123V146C514 164 500 178 482 178H443C425 178 411 164 411 146V123Z" fill="#77614F"/>
  <path d="M515 104C542 84 559 79 586 76C575 105 569 124 551 148" stroke="#D6C2A9" stroke-width="14" stroke-linecap="round" stroke-linejoin="round"/>
  <path d="M403 103C382 85 363 80 338 79C351 103 359 120 373 143" stroke="#D6C2A9" stroke-width="14" stroke-linecap="round" stroke-linejoin="round"/>
  <circle cx="489" cy="154" r="9" fill="#F7EFE1"/>
  <path d="M508 186C492 199 448 199 432 186" stroke="#B9947D" stroke-width="8" stroke-linecap="round"/>
  <path d="M175 356V253" stroke="#2E2318" stroke-width="18" stroke-linecap="round"/>
  <path d="M252 356V264" stroke="#2E2318" stroke-width="18" stroke-linecap="round"/>
  <path d="M362 356V264" stroke="#2E2318" stroke-width="18" stroke-linecap="round"/>
  <path d="M447 356V256" stroke="#2E2318" stroke-width="18" stroke-linecap="round"/>
</svg>
